<svg width="267" height="24" viewBox="0 0 267 24" fill="none" xmlns="http://www.w3.org/2000/svg">
<path d="M13.12 11.672L20.576 23H15.232L10.336 15.16L5.408 23H0.224L7.68 11.64L0.256 0.311998H5.568L10.432 8.152L15.392 0.311998H20.544L13.12 11.672ZM34.2845 10.648C35.3938 10.648 36.2578 10.36 36.8765 9.784C37.5165 9.18667 37.8365 8.39733 37.8365 7.416C37.8365 6.392 37.5165 5.592 36.8765 5.016C36.2578 4.44 35.3938 4.152 34.2845 4.152H30.7965V10.648H34.2845ZM30.7645 14.456V23H26.3485V0.311998H34.8285C35.9378 0.311998 36.9512 0.493332 37.8685 0.855999C38.7858 1.19733 39.5752 1.688 40.2365 2.328C40.8978 2.94667 41.3992 3.69333 41.7405 4.568C42.1032 5.42133 42.2845 6.36 42.2845 7.384C42.2845 8.408 42.1032 9.35733 41.7405 10.232C41.3992 11.1067 40.8978 11.8533 40.2365 12.472C39.5752 13.0907 38.7858 13.5813 37.8685 13.944C36.9512 14.2853 35.9378 14.456 34.8285 14.456H30.7645ZM48.6035 23V0.311998H53.0195V18.776H63.1315V23H48.6035ZM82.579 17.816H73.363L71.475 23H66.803L75.507 0.311998H80.627L89.267 23H84.467L82.579 17.816ZM74.835 13.784H81.107L77.971 5.208L74.835 13.784ZM95.1135 23V0.311998H99.5935V23H95.1135ZM122.495 23L112.191 6.904V23H107.775V0.311998H113.279L122.719 15.32V0.311998H127.135V23H122.495Z" fill="#302353"/>
<path d="M147.982 21.528H157.262V23H146.446V0.279999H147.982V21.528ZM179.809 14.072C179.809 20.376 176.353 23.32 171.329 23.32C166.273 23.32 162.817 20.376 162.817 14.072V0.279999H164.353V14.072C164.353 19.608 167.297 21.848 171.329 21.848C175.329 21.848 178.273 19.608 178.273 14.072V0.279999H179.809V14.072ZM207.56 0.279999H209.128V23H207.56V3.128L198.504 17.976H197.544L188.488 3.128V23H186.952V0.279999H188.488L198.024 15.896L207.56 0.279999ZM216.235 23V0.279999H217.771V23H216.235ZM240.579 0.279999H242.115V23H240.579L226.339 2.904V23H224.803V0.279999H226.339L240.579 20.376V0.279999ZM264.694 23L262.454 16.792H252.054L249.814 23H248.214L256.406 0.279999H258.102L266.294 23H264.694ZM252.598 15.32H261.942L257.27 2.36L252.598 15.32Z" fill="#00FF00"/>
</svg>
