<svg width="265" height="25" viewBox="0 0 265 25" fill="none" xmlns="http://www.w3.org/2000/svg">
<path d="M13.12 12.672L20.576 24H15.232L10.336 16.16L5.408 24H0.224L7.68 12.64L0.256 1.312H5.568L10.432 9.152L15.392 1.312H20.544L13.12 12.672ZM34.2845 11.648C35.3938 11.648 36.2578 11.36 36.8765 10.784C37.5165 10.1867 37.8365 9.39733 37.8365 8.416C37.8365 7.392 37.5165 6.592 36.8765 6.016C36.2578 5.44 35.3938 5.152 34.2845 5.152H30.7965V11.648H34.2845ZM30.7645 15.456V24H26.3485V1.312H34.8285C35.9378 1.312 36.9512 1.49333 37.8685 1.856C38.7858 2.19733 39.5752 2.688 40.2365 3.328C40.8978 3.94667 41.3992 4.69333 41.7405 5.568C42.1032 6.42133 42.2845 7.36 42.2845 8.384C42.2845 9.408 42.1032 10.3573 41.7405 11.232C41.3992 12.1067 40.8978 12.8533 40.2365 13.472C39.5752 14.0907 38.7858 14.5813 37.8685 14.944C36.9512 15.2853 35.9378 15.456 34.8285 15.456H30.7645ZM48.6035 24V1.312H53.0195V19.776H63.1315V24H48.6035ZM82.579 18.816H73.363L71.475 24H66.803L75.507 1.312H80.627L89.267 24H84.467L82.579 18.816ZM74.835 14.784H81.107L77.971 6.208L74.835 14.784ZM95.1135 24V1.312H99.5935V24H95.1135ZM122.495 24L112.191 7.904V24H107.775V1.312H113.279L122.719 16.32V1.312H127.135V24H122.495Z" fill="#302353"/>
<path d="M152.846 1.28C157.262 1.28 160.654 3.68 160.654 8.48C160.654 13.248 157.262 15.648 152.846 15.648H147.598V24H146.062V1.28H152.846ZM152.846 14.176C156.462 14.176 159.118 12.416 159.118 8.48C159.118 4.544 156.462 2.752 152.846 2.752H147.598V14.176H152.846ZM179.869 24L174.525 15.904H168.541V24H167.005V1.28H174.653C178.269 1.28 181.597 4.064 181.597 8.608C181.597 12.48 179.165 15.072 176.157 15.744L181.661 24H179.869ZM168.541 2.752V14.432H174.653C177.469 14.432 180.061 12.256 180.061 8.608C180.061 4.928 177.469 2.752 174.653 2.752H168.541ZM188.699 24V1.28H190.235V24H188.699ZM197.192 18.24H198.728C199.016 21.376 201.576 22.848 204.104 22.848C207.272 22.848 209.256 21.184 209.256 18.752C209.256 15.808 206.664 14.336 203.784 12.992C200.392 11.328 197.672 10.016 197.672 6.304C197.672 3.168 200.456 0.959999 203.88 0.959999C207.24 0.959999 209.64 3.456 209.896 6.464H208.36C208.104 4.224 206.344 2.432 203.88 2.432C201.32 2.432 199.208 4.032 199.208 6.336C199.208 9.344 201.544 10.304 204.2 11.552C207.88 13.28 210.792 15.136 210.792 18.784C210.792 22.144 208.04 24.32 204.104 24.32C200.584 24.32 197.448 22.016 197.192 18.24ZM238.382 1.28H239.95V24H238.382V4.128L229.326 18.976H228.366L219.31 4.128V24H217.774V1.28H219.31L228.846 16.896L238.382 1.28ZM262.631 24L260.391 17.792H249.991L247.751 24H246.151L254.343 1.28H256.039L264.231 24H262.631ZM250.535 16.32H259.879L255.207 3.36L250.535 16.32Z" fill="#00FF00"/>
</svg>
