<svg width="249" height="24" viewBox="0 0 249 24" fill="none" xmlns="http://www.w3.org/2000/svg">
<path d="M13.12 11.672L20.576 23H15.232L10.336 15.16L5.408 23H0.224L7.68 11.64L0.256 0.311998H5.568L10.432 8.152L15.392 0.311998H20.544L13.12 11.672ZM34.2845 10.648C35.3938 10.648 36.2578 10.36 36.8765 9.784C37.5165 9.18667 37.8365 8.39733 37.8365 7.416C37.8365 6.392 37.5165 5.592 36.8765 5.016C36.2578 4.44 35.3938 4.152 34.2845 4.152H30.7965V10.648H34.2845ZM30.7645 14.456V23H26.3485V0.311998H34.8285C35.9378 0.311998 36.9512 0.493332 37.8685 0.855999C38.7858 1.19733 39.5752 1.688 40.2365 2.328C40.8978 2.94667 41.3992 3.69333 41.7405 4.568C42.1032 5.42133 42.2845 6.36 42.2845 7.384C42.2845 8.408 42.1032 9.35733 41.7405 10.232C41.3992 11.1067 40.8978 11.8533 40.2365 12.472C39.5752 13.0907 38.7858 13.5813 37.8685 13.944C36.9512 14.2853 35.9378 14.456 34.8285 14.456H30.7645ZM48.6035 23V0.311998H53.0195V18.776H63.1315V23H48.6035ZM82.579 17.816H73.363L71.475 23H66.803L75.507 0.311998H80.627L89.267 23H84.467L82.579 17.816ZM74.835 13.784H81.107L77.971 5.208L74.835 13.784ZM95.1135 23V0.311998H99.5935V23H95.1135ZM122.495 23L112.191 6.904V23H107.775V0.311998H113.279L122.719 15.32V0.311998H127.135V23H122.495Z" fill="#302353"/>
<path d="M162.2 23L159.96 16.792H149.56L147.32 23H145.72L153.912 0.279999H155.608L163.8 23H162.2ZM150.104 15.32H159.448L154.776 2.36L150.104 15.32ZM185.528 14.072C185.528 20.376 182.072 23.32 177.048 23.32C171.992 23.32 168.536 20.376 168.536 14.072V0.279999H170.072V14.072C170.072 19.608 173.016 21.848 177.048 21.848C181.048 21.848 183.992 19.608 183.992 14.072V0.279999H185.528V14.072ZM205.342 23L199.998 14.904H194.014V23H192.478V0.279999H200.126C203.742 0.279999 207.07 3.064 207.07 7.608C207.07 11.48 204.638 14.072 201.63 14.744L207.134 23H205.342ZM194.014 1.752V13.432H200.126C202.942 13.432 205.534 11.256 205.534 7.608C205.534 3.928 202.942 1.752 200.126 1.752H194.014ZM225.725 1.752H215.645V10.36H223.357V11.832H215.645V21.528H225.725V23H214.109V0.279999H225.725V1.752ZM247.376 23L245.136 16.792H234.736L232.496 23H230.896L239.088 0.279999H240.784L248.976 23H247.376ZM235.28 15.32H244.624L239.952 2.36L235.28 15.32Z" fill="#00FF00"/>
</svg>
